<svg width="16" height="17" viewBox="0 0 16 17" fill="none" xmlns="http://www.w3.org/2000/svg">
<g clip-path="url(#clip0_313_514)">
<path d="M8.00044 3.5C7.81099 3.5 7.62931 3.57526 7.49535 3.70921C7.36139 3.84317 7.28613 4.02486 7.28613 4.2143V9.92872C7.28613 10.1182 7.36139 10.2998 7.49535 10.4338C7.62931 10.5678 7.81099 10.643 8.00044 10.643C8.18988 10.643 8.37157 10.5678 8.50553 10.4338C8.63949 10.2998 8.71474 10.1182 8.71474 9.92872V4.2143C8.71474 4.02486 8.63949 3.84317 8.50553 3.70921C8.37157 3.57526 8.18988 3.5 8.00044 3.5Z" fill="#FE9E2A"/>
<path d="M8.71474 12.7856C8.71474 12.3911 8.39494 12.0713 8.00044 12.0713C7.60594 12.0713 7.28613 12.3911 7.28613 12.7856C7.28613 13.1801 7.60594 13.4999 8.00044 13.4999C8.39494 13.4999 8.71474 13.1801 8.71474 12.7856Z" fill="#FE9E2A"/>
<path d="M8 0.5C6.41775 0.5 4.87103 0.969192 3.55544 1.84824C2.23985 2.72729 1.21447 3.97672 0.608967 5.43853C0.00346629 6.90034 -0.15496 8.50887 0.153721 10.0607C0.462403 11.6126 1.22433 13.038 2.34315 14.1569C3.46197 15.2757 4.88743 16.0376 6.43928 16.3463C7.99113 16.655 9.59966 16.4965 11.0615 15.891C12.5233 15.2855 13.7727 14.2602 14.6518 12.9446C15.5308 11.629 16 10.0822 16 8.5C15.9977 6.37897 15.1541 4.34547 13.6543 2.84568C12.1545 1.34589 10.121 0.502294 8 0.5V0.5ZM8 15.1667C6.68146 15.1667 5.39253 14.7757 4.2962 14.0431C3.19987 13.3106 2.34539 12.2694 1.84081 11.0512C1.33622 9.83305 1.2042 8.4926 1.46143 7.1994C1.71867 5.90619 2.35361 4.7183 3.28596 3.78595C4.21831 2.8536 5.40619 2.21867 6.6994 1.96143C7.99261 1.7042 9.33305 1.83622 10.5512 2.3408C11.7694 2.84539 12.8106 3.69987 13.5431 4.7962C14.2757 5.89253 14.6667 7.18146 14.6667 8.5C14.6647 10.2675 13.9617 11.9621 12.7119 13.2119C11.4621 14.4617 9.76752 15.1647 8 15.1667Z" fill="#FE9E2A"/>
</g>
<defs>
<clipPath id="clip0_313_514">
<rect y="0.5" width="16" height="16" rx="8" fill="white"/>
</clipPath>
</defs>
</svg>
