<svg width="24" height="25" viewBox="0 0 24 25" fill="none" xmlns="http://www.w3.org/2000/svg">
<path d="M18.7099 8.83974C18.6169 8.74601 18.5063 8.67162 18.3845 8.62085C18.2626 8.57008 18.1319 8.54395 17.9999 8.54395C17.8679 8.54395 17.7372 8.57008 17.6153 8.62085C17.4934 8.67162 17.3828 8.74601 17.2899 8.83974L12.7099 13.4197C12.6169 13.5135 12.5063 13.5879 12.3845 13.6386C12.2626 13.6894 12.1319 13.7155 11.9999 13.7155C11.8679 13.7155 11.7372 13.6894 11.6153 13.6386C11.4934 13.5879 11.3828 13.5135 11.2899 13.4197L6.70988 8.83974C6.61691 8.74601 6.50631 8.67162 6.38445 8.62085C6.26259 8.57008 6.13189 8.54395 5.99988 8.54395C5.86787 8.54395 5.73716 8.57008 5.6153 8.62085C5.49344 8.67162 5.38284 8.74601 5.28988 8.83974C5.10363 9.02711 4.99908 9.28056 4.99908 9.54474C4.99908 9.80893 5.10363 10.0624 5.28988 10.2497L9.87988 14.8397C10.4424 15.4015 11.2049 15.7171 11.9999 15.7171C12.7949 15.7171 13.5574 15.4015 14.1199 14.8397L18.7099 10.2497C18.8961 10.0624 19.0007 9.80893 19.0007 9.54474C19.0007 9.28056 18.8961 9.02711 18.7099 8.83974Z" fill="#757575"/>
</svg>
