<svg width="69" height="20" viewBox="0 0 69 20" fill="none" xmlns="http://www.w3.org/2000/svg">
<path fill-rule="evenodd" clip-rule="evenodd" d="M11.0403 4.10415C8.97729 2.10494 6.56712 2.58333 5.69856 3.0156L5.67073 3.02944L5.64228 3.04197C2.64486 4.36126 2.48338 6.96023 2.72284 8.60492C3.42978 11.0313 4.99071 13.3683 6.40356 15.0727C7.01559 15.811 8.12972 15.8113 8.73778 15.0697C9.51373 14.1234 10.1944 13.1387 10.7568 12.1769C11.7884 10.4132 12.3591 8.83576 12.4671 7.78321C12.5433 7.03976 12.3493 6.2738 12.0223 5.57768C11.6984 4.88818 11.2852 4.3558 11.0403 4.10415ZM4.55371 0.641735C6.12217 -0.124151 9.81158 -0.770982 12.8896 2.22647L12.8997 2.23628L12.9095 2.24629C13.3585 2.70258 13.9509 3.48488 14.4076 4.45717C14.8653 5.43155 15.2287 6.68722 15.0888 8.0521C14.9264 9.63498 14.1541 11.5884 13.0318 13.5074C11.8944 15.4522 10.332 17.474 8.47171 19.1911C7.97426 19.6503 7.20978 19.6578 6.70339 19.2085C5.07044 17.7597 1.46751 13.7756 0.179114 9.29548L0.168787 9.25957L0.160512 9.22313C-0.288935 7.24422 -0.0736097 2.6956 4.55371 0.641735Z" fill="#2F5CE4"/>
<path d="M9.25778 8.24411V6.55473C9.25778 5.62172 8.50142 4.86536 7.56841 4.86536C6.63539 4.86536 5.87903 5.62172 5.87903 6.55473V8.24411H9.25778Z" fill="#62C3D0"/>
<path d="M5.879 8.24408L5.879 9.93346C5.879 10.8665 6.63536 11.6228 7.56837 11.6228C8.50139 11.6228 9.25775 10.8665 9.25775 9.93346L9.25775 8.24408L5.879 8.24408Z" fill="#2F5CE4"/>
<path d="M66.8026 7.38743H67.2206C68.2013 7.38743 68.4907 8.03052 68.4907 8.6736C68.4907 9.33276 68.1852 9.94369 67.2206 9.94369H66.8026V11.1173H63.5872V4.04341C63.5872 2.9984 64.3428 2.45178 65.1949 2.45178C66.0148 2.45178 66.7544 2.96625 66.8026 3.93087H67.2206C68.2013 3.93087 68.4907 4.57395 68.4907 5.21703C68.4907 5.87619 68.1852 6.48712 67.2206 6.48712H66.8026V7.38743ZM57.5262 10.9726C54.9056 10.9726 53.0246 9.75076 53.0246 7.37136V6.22989C53.0246 3.86656 54.8895 2.62863 57.5101 2.62863C60.1306 2.62863 62.0117 3.85049 62.0117 6.22989V7.37136C62.0117 9.75076 60.1306 10.9726 57.5262 10.9726ZM56.1275 6.22989V7.37136C56.1275 8.14306 56.7384 8.59321 57.5101 8.59321C58.2818 8.59321 58.9088 8.14306 58.9088 7.37136V6.22989C58.9088 5.45819 58.2818 4.99195 57.5101 5.00803C56.7384 5.02411 56.1275 5.47427 56.1275 6.22989ZM54.9699 11.7765H64.6001C66.6097 11.7765 66.9795 12.3231 66.9795 14.2523V17.5481H63.7319V14.7025C63.7319 14.4613 63.6033 14.3166 63.3461 14.3166H54.9699C54.0696 14.3166 53.5712 13.8022 53.5712 13.0466C53.5712 12.2909 54.0696 11.7765 54.9699 11.7765Z" fill="#2F5CE4"/>
<path d="M51.1275 17.5481H47.9121V4.04341C47.9121 2.9984 48.6677 2.45178 49.5198 2.45178C50.3719 2.45178 51.1275 2.9984 51.1275 4.04341V17.5481ZM37.9925 14.2363C40.5809 13.9629 42.4941 12.8536 42.4941 9.04337V6.22989C42.4941 6.00481 42.3494 5.82796 42.0922 5.82796H38.3784C37.4138 5.82796 36.9475 5.13665 36.9475 4.46141C36.9475 3.80225 37.3977 3.06271 38.3784 3.06271H43.2015C44.97 3.06271 45.6613 3.88264 45.6613 5.36173V9.05945C45.6613 14.606 42.2851 16.7604 38.3462 16.905C37.4942 16.9533 36.7064 16.471 36.7546 15.5224C36.7868 14.8472 37.1887 14.3327 37.9925 14.2363Z" fill="#2F5CE4"/>
<path d="M30.8221 11.2941H25.1148C22.4942 11.2941 20.9348 9.41313 20.9348 7.25881V6.88904C20.9348 4.73471 22.4942 2.8537 25.1148 2.8537H30.8221C33.4427 2.8537 35.0183 4.73471 35.0183 6.88904V7.25881C35.0183 9.41313 33.4427 11.2941 30.8221 11.2941ZM24.2627 6.87296V7.27489C24.2627 8.11089 24.9379 8.7379 25.9508 8.7379H29.9861C30.999 8.7379 31.6903 8.11089 31.6903 7.27489V6.87296C31.6903 6.03695 30.999 5.40995 29.9861 5.40995H25.9508C24.9379 5.40995 24.2627 6.03695 24.2627 6.87296ZM32.5906 14.6703H34.1662C35.1147 14.6703 35.5006 15.2973 35.5006 15.9565C35.5006 16.6317 35.0986 17.2266 34.1662 17.2266H21.7868C20.8544 17.2266 20.4525 16.6317 20.4525 15.9565C20.4525 15.2973 20.8383 14.6703 21.7868 14.6703H23.3624V13.143C23.3624 12.1302 24.0698 11.8086 24.9219 11.8086C25.7579 11.8086 26.4813 12.1462 26.4813 13.143V14.6703H29.4717V13.143C29.4717 12.1302 30.1791 11.8086 31.0311 11.8086C31.8672 11.8086 32.5906 12.1462 32.5906 13.143V14.6703Z" fill="#2F5CE4"/>
</svg>
