<svg width="30" height="30" viewBox="0 0 30 30" fill="none" xmlns="http://www.w3.org/2000/svg">
<path d="M22.5 15.0002C22.4939 14.3426 22.2289 13.7138 21.7625 13.2502L16.4 7.87521C16.1658 7.6424 15.849 7.51172 15.5188 7.51172C15.1885 7.51172 14.8717 7.6424 14.6375 7.87521C14.5203 7.99141 14.4273 8.12966 14.3639 8.28199C14.3004 8.43431 14.2678 8.59769 14.2678 8.76271C14.2678 8.92772 14.3004 9.0911 14.3639 9.24343C14.4273 9.39575 14.5203 9.534 14.6375 9.65021L18.75 13.7502H6.25C5.91848 13.7502 5.60054 13.8819 5.36612 14.1163C5.1317 14.3507 5 14.6687 5 15.0002C5 15.3317 5.1317 15.6497 5.36612 15.8841C5.60054 16.1185 5.91848 16.2502 6.25 16.2502H18.75L14.6375 20.3627C14.4021 20.5964 14.2692 20.9141 14.2681 21.2458C14.2669 21.5775 14.3975 21.8961 14.6313 22.1314C14.865 22.3668 15.1826 22.4997 15.5143 22.5009C15.846 22.5021 16.1646 22.3714 16.4 22.1377L21.7625 16.7627C22.232 16.296 22.4972 15.6622 22.5 15.0002Z" fill="#9E9E9E"/>
</svg>
