<svg width="24" height="25" viewBox="0 0 24 25" fill="none" xmlns="http://www.w3.org/2000/svg">
<path d="M21.7663 21.5889L16.7962 16.6188C18.1506 14.9623 18.8165 12.8487 18.6562 10.715C18.4959 8.58128 17.5216 6.59083 15.9349 5.15534C14.3482 3.71984 12.2704 2.94913 10.1314 3.00261C7.99233 3.05609 5.95568 3.92968 4.44268 5.44268C2.92968 6.95568 2.05609 8.99233 2.00261 11.1314C1.94913 13.2704 2.71984 15.3482 4.15534 16.9349C5.59083 18.5216 7.58128 19.4959 9.71497 19.6562C11.8487 19.8165 13.9623 19.1506 15.6188 17.7962L20.5889 22.7663C20.7459 22.9179 20.9563 23.0019 21.1746 23C21.3929 22.9981 21.6017 22.9105 21.7561 22.7561C21.9105 22.6017 21.9981 22.3929 22 22.1746C22.0019 21.9563 21.9179 21.7459 21.7663 21.5889ZM10.3531 18.0143C9.03568 18.0143 7.74781 17.6237 6.65238 16.8917C5.55695 16.1598 4.70317 15.1194 4.199 13.9023C3.69483 12.6851 3.56292 11.3458 3.81994 10.0536C4.07697 8.76146 4.71138 7.57455 5.64297 6.64297C6.57455 5.71138 7.76146 5.07697 9.05361 4.81994C10.3458 4.56292 11.6851 4.69483 12.9023 5.199C14.1194 5.70317 15.1598 6.55695 15.8917 7.65238C16.6237 8.74781 17.0143 10.0357 17.0143 11.3531C17.0124 13.1192 16.3099 14.8123 15.0611 16.0611C13.8123 17.3099 12.1192 18.0124 10.3531 18.0143Z" fill="#757575"/>
</svg>
