<svg xmlns="http://www.w3.org/2000/svg" width="30" height="30" viewBox="0 0 30 30" fill="none">
  <path d="M22.5001 15.0002C22.494 14.3426 22.2291 13.7138 21.7626 13.2502L16.4001 7.87521C16.1659 7.6424 15.8491 7.51172 15.5189 7.51172C15.1886 7.51172 14.8718 7.6424 14.6376 7.87521C14.5205 7.99141 14.4275 8.12966 14.364 8.28199C14.3005 8.43431 14.2679 8.59769 14.2679 8.76271C14.2679 8.92772 14.3005 9.0911 14.364 9.24343C14.4275 9.39575 14.5205 9.534 14.6376 9.65021L18.7501 13.7502H6.25012C5.9186 13.7502 5.60066 13.8819 5.36624 14.1163C5.13182 14.3507 5.00012 14.6687 5.00012 15.0002C5.00012 15.3317 5.13182 15.6497 5.36624 15.8841C5.60066 16.1185 5.9186 16.2502 6.25012 16.2502H18.7501L14.6376 20.3627C14.4022 20.5964 14.2693 20.9141 14.2682 21.2458C14.267 21.5775 14.3976 21.8961 14.6314 22.1314C14.8651 22.3668 15.1827 22.4997 15.5145 22.5009C15.8462 22.5021 16.1647 22.3714 16.4001 22.1377L21.7626 16.7627C22.2321 16.296 22.4973 15.6622 22.5001 15.0002V15.0002Z" fill="#2F5CE4"/>
</svg>